<svg xmlns="http://www.w3.org/2000/svg" xmlns:xlink="http://www.w3.org/1999/xlink" width="500" zoomAndPan="magnify" viewBox="0 0 375 374.999991" height="500" preserveAspectRatio="xMidYMid meet" version="1.2"><defs><clipPath id="f64bc1ed8c"><path d="M 4.6875 2.25 L 370.6875 2.25 L 370.6875 372 L 4.6875 372 Z M 4.6875 2.25 "/></clipPath></defs><g id="187218c3d9"><g clip-rule="nonzero" clip-path="url(#f64bc1ed8c)"><path style=" stroke:none;fill-rule:nonzero;fill:#278d46;fill-opacity:1;" d="M 370.675781 185.085938 C 370.675781 286.03125 288.757812 367.863281 187.710938 367.863281 C 180.34375 367.875 173 367.441406 165.683594 366.5625 C 158.367188 365.683594 151.128906 364.363281 143.972656 362.609375 C 136.816406 360.851562 129.792969 358.667969 122.902344 356.0625 C 116.011719 353.453125 109.304688 350.4375 102.777344 347.015625 C 102.707031 347.046875 102.632812 347.078125 102.558594 347.109375 L 47.410156 370.003906 C 30.152344 377.167969 12.746094 360.109375 19.585938 342.738281 L 39.46875 292.238281 C 33.847656 284.5 28.867188 276.367188 24.53125 267.84375 C 20.191406 259.320312 16.546875 250.511719 13.601562 241.414062 C 10.652344 232.316406 8.4375 223.042969 6.953125 213.597656 C 5.46875 204.152344 4.730469 194.648438 4.746094 185.085938 C 4.746094 84.140625 86.664062 2.308594 187.710938 2.308594 C 288.757812 2.308594 370.675781 84.140625 370.675781 185.085938 Z M 370.675781 185.085938 "/></g><path style=" stroke:none;fill-rule:nonzero;fill:#ffffff;fill-opacity:1;" d="M 346.9375 185.085938 C 346.9375 187.691406 346.871094 190.292969 346.742188 192.890625 C 346.617188 195.492188 346.425781 198.085938 346.167969 200.675781 C 345.914062 203.269531 345.59375 205.851562 345.210938 208.425781 C 344.828125 211 344.382812 213.566406 343.875 216.117188 C 343.367188 218.671875 342.796875 221.210938 342.164062 223.734375 C 341.53125 226.261719 340.835938 228.769531 340.078125 231.257812 C 339.324219 233.75 338.507812 236.222656 337.628906 238.671875 C 336.75 241.125 335.8125 243.550781 334.816406 245.957031 C 333.816406 248.363281 332.761719 250.742188 331.648438 253.09375 C 330.535156 255.445312 329.363281 257.773438 328.132812 260.066406 C 326.90625 262.363281 325.621094 264.628906 324.28125 266.859375 C 322.941406 269.09375 321.550781 271.292969 320.101562 273.457031 C 318.652344 275.621094 317.152344 277.75 315.601562 279.839844 C 314.050781 281.929688 312.445312 283.980469 310.792969 285.992188 C 309.140625 288.007812 307.4375 289.976562 305.6875 291.90625 C 303.9375 293.835938 302.140625 295.71875 300.300781 297.558594 C 298.457031 299.398438 296.570312 301.195312 294.640625 302.941406 C 292.710938 304.691406 290.738281 306.390625 288.722656 308.042969 C 286.707031 309.695312 284.652344 311.292969 282.5625 312.84375 C 280.46875 314.394531 278.339844 315.894531 276.171875 317.339844 C 274.003906 318.785156 271.804688 320.179688 269.570312 321.519531 C 267.332031 322.855469 265.066406 324.136719 262.769531 325.367188 C 260.472656 326.59375 258.144531 327.761719 255.789062 328.875 C 253.433594 329.988281 251.050781 331.042969 248.644531 332.039062 C 246.238281 333.035156 243.804688 333.972656 241.351562 334.847656 C 238.898438 335.726562 236.425781 336.542969 233.933594 337.296875 C 231.4375 338.054688 228.925781 338.75 226.398438 339.378906 C 223.871094 340.011719 221.332031 340.582031 218.773438 341.089844 C 216.21875 341.597656 213.652344 342.042969 211.074219 342.425781 C 208.496094 342.808594 205.910156 343.125 203.316406 343.382812 C 200.726562 343.636719 198.125 343.828125 195.523438 343.957031 C 192.921875 344.082031 190.316406 344.148438 187.710938 344.148438 C 185.105469 344.148438 182.5 344.082031 179.898438 343.957031 C 177.296875 343.828125 174.699219 343.636719 172.105469 343.382812 C 169.511719 343.125 166.925781 342.808594 164.347656 342.425781 C 161.769531 342.042969 159.203125 341.597656 156.648438 341.089844 C 154.09375 340.582031 151.550781 340.011719 149.023438 339.378906 C 146.496094 338.75 143.984375 338.054688 141.492188 337.296875 C 138.996094 336.542969 136.523438 335.726562 134.070312 334.847656 C 131.617188 333.972656 129.1875 333.035156 126.777344 332.039062 C 124.371094 331.042969 121.988281 329.988281 119.632812 328.875 C 117.277344 327.761719 114.953125 326.59375 112.652344 325.367188 C 110.355469 324.136719 108.089844 322.855469 105.855469 321.519531 C 103.617188 320.179688 101.417969 318.785156 99.25 317.339844 C 97.085938 315.894531 94.953125 314.394531 92.863281 312.84375 C 90.769531 311.292969 88.714844 309.695312 86.699219 308.042969 C 84.6875 306.390625 82.714844 304.691406 80.78125 302.941406 C 78.851562 301.195312 76.964844 299.398438 75.121094 297.558594 C 73.28125 295.71875 71.484375 293.835938 69.734375 291.90625 C 67.984375 289.976562 66.28125 288.007812 64.628906 285.992188 C 62.976562 283.980469 61.375 281.929688 59.820312 279.839844 C 58.269531 277.75 56.769531 275.621094 55.320312 273.457031 C 53.875 271.292969 52.480469 269.09375 51.140625 266.859375 C 49.800781 264.628906 48.515625 262.363281 47.289062 260.066406 C 46.058594 257.773438 44.886719 255.445312 43.773438 253.09375 C 42.660156 250.742188 41.605469 248.363281 40.609375 245.957031 C 39.609375 243.550781 38.671875 241.125 37.792969 238.671875 C 36.917969 236.222656 36.101562 233.75 35.34375 231.257812 C 34.585938 228.769531 33.890625 226.261719 33.257812 223.734375 C 32.625 221.210938 32.054688 218.671875 31.546875 216.117188 C 31.039062 213.566406 30.59375 211 30.210938 208.425781 C 29.828125 205.851562 29.507812 203.269531 29.253906 200.675781 C 29 198.085938 28.808594 195.492188 28.679688 192.890625 C 28.550781 190.292969 28.488281 187.691406 28.488281 185.085938 C 28.488281 182.484375 28.550781 179.882812 28.679688 177.28125 C 28.808594 174.679688 29 172.085938 29.253906 169.496094 C 29.507812 166.90625 29.828125 164.324219 30.210938 161.746094 C 30.59375 159.171875 31.039062 156.609375 31.546875 154.054688 C 32.054688 151.503906 32.625 148.960938 33.257812 146.4375 C 33.890625 143.914062 34.585938 141.40625 35.34375 138.914062 C 36.101562 136.421875 36.917969 133.953125 37.792969 131.5 C 38.671875 129.050781 39.609375 126.621094 40.609375 124.214844 C 41.605469 121.8125 42.660156 119.433594 43.773438 117.078125 C 44.886719 114.726562 46.058594 112.402344 47.289062 110.105469 C 48.515625 107.808594 49.800781 105.546875 51.140625 103.3125 C 52.480469 101.078125 53.875 98.882812 55.320312 96.714844 C 56.769531 94.550781 58.269531 92.425781 59.820312 90.332031 C 61.375 88.242188 62.976562 86.191406 64.628906 84.179688 C 66.28125 82.167969 67.984375 80.195312 69.734375 78.265625 C 71.484375 76.339844 73.28125 74.453125 75.121094 72.613281 C 76.964844 70.773438 78.851562 68.976562 80.78125 67.230469 C 82.714844 65.480469 84.6875 63.78125 86.699219 62.128906 C 88.714844 60.480469 90.769531 58.878906 92.863281 57.328125 C 94.953125 55.777344 97.085938 54.277344 99.25 52.832031 C 101.417969 51.386719 103.617188 49.992188 105.855469 48.65625 C 108.089844 47.316406 110.355469 46.035156 112.652344 44.808594 C 114.953125 43.578125 117.277344 42.410156 119.632812 41.296875 C 121.988281 40.183594 124.371094 39.128906 126.777344 38.132812 C 129.1875 37.136719 131.617188 36.199219 134.070312 35.324219 C 136.523438 34.445312 138.996094 33.628906 141.492188 32.875 C 143.984375 32.117188 146.496094 31.425781 149.023438 30.792969 C 151.550781 30.160156 154.09375 29.589844 156.648438 29.082031 C 159.203125 28.574219 161.769531 28.128906 164.347656 27.746094 C 166.925781 27.363281 169.511719 27.046875 172.105469 26.792969 C 174.699219 26.535156 177.296875 26.34375 179.898438 26.21875 C 182.5 26.089844 185.105469 26.023438 187.710938 26.023438 C 190.316406 26.023438 192.921875 26.089844 195.523438 26.21875 C 198.125 26.34375 200.726562 26.535156 203.316406 26.792969 C 205.910156 27.046875 208.496094 27.363281 211.074219 27.746094 C 213.652344 28.128906 216.21875 28.574219 218.773438 29.082031 C 221.332031 29.589844 223.871094 30.160156 226.398438 30.792969 C 228.925781 31.425781 231.4375 32.117188 233.933594 32.875 C 236.425781 33.628906 238.898438 34.445312 241.351562 35.324219 C 243.804688 36.199219 246.238281 37.136719 248.644531 38.132812 C 251.050781 39.128906 253.433594 40.183594 255.789062 41.296875 C 258.144531 42.410156 260.472656 43.578125 262.769531 44.808594 C 265.066406 46.035156 267.332031 47.316406 269.570312 48.65625 C 271.804688 49.992188 274.003906 51.386719 276.171875 52.832031 C 278.339844 54.277344 280.46875 55.777344 282.5625 57.328125 C 284.652344 58.878906 286.707031 60.480469 288.722656 62.128906 C 290.738281 63.78125 292.710938 65.480469 294.640625 67.230469 C 296.570312 68.976562 298.457031 70.773438 300.300781 72.613281 C 302.140625 74.453125 303.9375 76.339844 305.6875 78.265625 C 307.4375 80.195312 309.140625 82.167969 310.792969 84.179688 C 312.445312 86.191406 314.050781 88.242188 315.601562 90.332031 C 317.152344 92.425781 318.652344 94.550781 320.101562 96.714844 C 321.550781 98.882812 322.941406 101.078125 324.28125 103.3125 C 325.621094 105.546875 326.90625 107.808594 328.132812 110.105469 C 329.363281 112.402344 330.535156 114.726562 331.648438 117.078125 C 332.761719 119.433594 333.816406 121.8125 334.816406 124.214844 C 335.8125 126.621094 336.75 129.050781 337.628906 131.5 C 338.507812 133.953125 339.324219 136.421875 340.078125 138.914062 C 340.835938 141.40625 341.53125 143.914062 342.164062 146.4375 C 342.796875 148.960938 343.367188 151.503906 343.875 154.054688 C 344.382812 156.609375 344.828125 159.171875 345.210938 161.746094 C 345.59375 164.324219 345.914062 166.90625 346.167969 169.496094 C 346.425781 172.085938 346.617188 174.679688 346.742188 177.28125 C 346.871094 179.882812 346.9375 182.484375 346.9375 185.085938 Z M 346.9375 185.085938 "/><path style=" stroke:none;fill-rule:nonzero;fill:#278d46;fill-opacity:1;" d="M 324.632812 185.085938 C 324.632812 187.324219 324.578125 189.5625 324.46875 191.796875 C 324.359375 194.035156 324.195312 196.265625 323.976562 198.492188 C 323.753906 200.722656 323.480469 202.941406 323.152344 205.15625 C 322.824219 207.371094 322.441406 209.574219 322.003906 211.769531 C 321.566406 213.96875 321.074219 216.152344 320.53125 218.320312 C 319.988281 220.492188 319.390625 222.648438 318.738281 224.792969 C 318.089844 226.933594 317.386719 229.058594 316.628906 231.167969 C 315.875 233.273438 315.070312 235.363281 314.210938 237.429688 C 313.355469 239.5 312.445312 241.546875 311.488281 243.570312 C 310.53125 245.59375 309.523438 247.589844 308.46875 249.566406 C 307.410156 251.539062 306.304688 253.488281 305.15625 255.40625 C 304.003906 257.328125 302.804688 259.21875 301.558594 261.078125 C 300.3125 262.941406 299.023438 264.769531 297.6875 266.566406 C 296.355469 268.367188 294.976562 270.128906 293.554688 271.859375 C 292.132812 273.589844 290.667969 275.285156 289.164062 276.945312 C 287.660156 278.601562 286.117188 280.222656 284.53125 281.804688 C 282.945312 283.390625 281.324219 284.933594 279.664062 286.4375 C 278.003906 287.9375 276.308594 289.402344 274.574219 290.820312 C 272.84375 292.242188 271.078125 293.617188 269.277344 294.953125 C 267.476562 296.285156 265.644531 297.574219 263.78125 298.816406 C 261.917969 300.0625 260.027344 301.257812 258.105469 302.410156 C 256.183594 303.558594 254.234375 304.664062 252.257812 305.71875 C 250.28125 306.773438 248.28125 307.78125 246.253906 308.738281 C 244.226562 309.695312 242.179688 310.601562 240.109375 311.457031 C 238.039062 312.3125 235.949219 313.121094 233.839844 313.875 C 231.730469 314.628906 229.601562 315.328125 227.457031 315.980469 C 225.3125 316.628906 223.15625 317.226562 220.980469 317.769531 C 218.808594 318.3125 216.621094 318.804688 214.425781 319.242188 C 212.226562 319.679688 210.019531 320.058594 207.800781 320.390625 C 205.585938 320.71875 203.363281 320.992188 201.132812 321.210938 C 198.902344 321.429688 196.667969 321.59375 194.429688 321.703125 C 192.191406 321.8125 189.953125 321.871094 187.710938 321.871094 C 185.46875 321.871094 183.230469 321.8125 180.992188 321.703125 C 178.753906 321.59375 176.519531 321.429688 174.289062 321.210938 C 172.0625 320.992188 169.835938 320.71875 167.621094 320.390625 C 165.402344 320.058594 163.195312 319.679688 161 319.242188 C 158.800781 318.804688 156.617188 318.3125 154.441406 317.769531 C 152.269531 317.226562 150.109375 316.628906 147.964844 315.980469 C 145.820312 315.328125 143.691406 314.628906 141.582031 313.875 C 139.472656 313.121094 137.382812 312.3125 135.3125 311.457031 C 133.242188 310.601562 131.195312 309.695312 129.167969 308.738281 C 127.144531 307.78125 125.140625 306.773438 123.167969 305.71875 C 121.191406 304.664062 119.242188 303.558594 117.320312 302.410156 C 115.398438 301.257812 113.503906 300.0625 111.640625 298.816406 C 109.777344 297.574219 107.945312 296.285156 106.144531 294.953125 C 104.347656 293.617188 102.582031 292.242188 100.847656 290.820312 C 99.117188 289.402344 97.417969 287.9375 95.757812 286.4375 C 94.097656 284.933594 92.476562 283.390625 90.890625 281.804688 C 89.308594 280.222656 87.761719 278.601562 86.257812 276.945312 C 84.753906 275.285156 83.289062 273.589844 81.867188 271.859375 C 80.445312 270.128906 79.070312 268.367188 77.734375 266.566406 C 76.398438 264.769531 75.109375 262.941406 73.863281 261.078125 C 72.617188 259.21875 71.421875 257.328125 70.269531 255.40625 C 69.117188 253.488281 68.011719 251.539062 66.957031 249.566406 C 65.898438 247.589844 64.890625 245.59375 63.933594 243.570312 C 62.976562 241.546875 62.070312 239.5 61.210938 237.429688 C 60.351562 235.363281 59.546875 233.273438 58.792969 231.167969 C 58.039062 229.058594 57.335938 226.933594 56.683594 224.792969 C 56.035156 222.648438 55.4375 220.492188 54.890625 218.320312 C 54.347656 216.152344 53.855469 213.96875 53.417969 211.769531 C 52.980469 209.574219 52.597656 207.371094 52.269531 205.15625 C 51.941406 202.941406 51.667969 200.722656 51.449219 198.492188 C 51.226562 196.265625 51.0625 194.035156 50.953125 191.796875 C 50.84375 189.5625 50.789062 187.324219 50.789062 185.085938 C 50.789062 182.847656 50.84375 180.609375 50.953125 178.375 C 51.0625 176.140625 51.226562 173.90625 51.449219 171.679688 C 51.667969 169.453125 51.941406 167.230469 52.269531 165.015625 C 52.597656 162.800781 52.980469 160.597656 53.417969 158.402344 C 53.855469 156.207031 54.347656 154.023438 54.890625 151.851562 C 55.4375 149.679688 56.035156 147.523438 56.683594 145.378906 C 57.335938 143.238281 58.039062 141.113281 58.792969 139.003906 C 59.546875 136.898438 60.351562 134.808594 61.210938 132.742188 C 62.070312 130.671875 62.976562 128.628906 63.933594 126.605469 C 64.890625 124.582031 65.898438 122.582031 66.957031 120.605469 C 68.011719 118.632812 69.117188 116.6875 70.269531 114.765625 C 71.421875 112.847656 72.617188 110.957031 73.863281 109.09375 C 75.109375 107.234375 76.398438 105.402344 77.734375 103.605469 C 79.070312 101.808594 80.445312 100.042969 81.867188 98.3125 C 83.289062 96.582031 84.753906 94.886719 86.257812 93.230469 C 87.761719 91.570312 89.308594 89.949219 90.890625 88.367188 C 92.476562 86.785156 94.097656 85.238281 95.757812 83.738281 C 97.417969 82.234375 99.117188 80.773438 100.847656 79.351562 C 102.582031 77.929688 104.347656 76.554688 106.144531 75.222656 C 107.945312 73.886719 109.777344 72.597656 111.640625 71.355469 C 113.503906 70.113281 115.398438 68.914062 117.320312 67.765625 C 119.242188 66.613281 121.191406 65.511719 123.167969 64.453125 C 125.140625 63.398438 127.144531 62.394531 129.167969 61.4375 C 131.195312 60.480469 133.242188 59.570312 135.3125 58.714844 C 137.382812 57.859375 139.472656 57.054688 141.582031 56.300781 C 143.691406 55.546875 145.820312 54.84375 147.964844 54.191406 C 150.109375 53.542969 152.269531 52.945312 154.441406 52.402344 C 156.617188 51.859375 158.800781 51.367188 161 50.933594 C 163.195312 50.496094 165.402344 50.113281 167.621094 49.785156 C 169.835938 49.457031 172.0625 49.179688 174.289062 48.960938 C 176.519531 48.742188 178.753906 48.578125 180.992188 48.46875 C 183.230469 48.359375 185.46875 48.304688 187.710938 48.304688 C 189.953125 48.304688 192.191406 48.359375 194.429688 48.46875 C 196.667969 48.578125 198.902344 48.742188 201.132812 48.960938 C 203.363281 49.179688 205.585938 49.457031 207.800781 49.785156 C 210.019531 50.113281 212.226562 50.496094 214.425781 50.933594 C 216.621094 51.367188 218.808594 51.859375 220.980469 52.402344 C 223.15625 52.945312 225.3125 53.542969 227.457031 54.191406 C 229.601562 54.84375 231.730469 55.546875 233.839844 56.300781 C 235.949219 57.054688 238.039062 57.859375 240.109375 58.714844 C 242.179688 59.570312 244.226562 60.480469 246.253906 61.4375 C 248.28125 62.394531 250.28125 63.398438 252.257812 64.453125 C 254.234375 65.511719 256.183594 66.613281 258.105469 67.765625 C 260.027344 68.914062 261.917969 70.113281 263.78125 71.355469 C 265.644531 72.597656 267.476562 73.886719 269.277344 75.222656 C 271.078125 76.554688 272.84375 77.929688 274.574219 79.351562 C 276.308594 80.773438 278.003906 82.234375 279.664062 83.738281 C 281.324219 85.238281 282.945312 86.785156 284.53125 88.367188 C 286.117188 89.949219 287.660156 91.570312 289.164062 93.230469 C 290.667969 94.886719 292.132812 96.582031 293.554688 98.3125 C 294.976562 100.042969 296.355469 101.808594 297.6875 103.605469 C 299.023438 105.402344 300.3125 107.234375 301.558594 109.09375 C 302.804688 110.957031 304.003906 112.847656 305.15625 114.765625 C 306.304688 116.6875 307.410156 118.632812 308.46875 120.605469 C 309.523438 122.582031 310.53125 124.582031 311.488281 126.605469 C 312.445312 128.628906 313.355469 130.671875 314.210938 132.742188 C 315.070312 134.808594 315.875 136.898438 316.628906 139.003906 C 317.386719 141.113281 318.089844 143.238281 318.738281 145.378906 C 319.390625 147.523438 319.988281 149.679688 320.53125 151.851562 C 321.074219 154.023438 321.566406 156.207031 322.003906 158.402344 C 322.441406 160.597656 322.824219 162.800781 323.152344 165.015625 C 323.480469 167.230469 323.753906 169.453125 323.976562 171.679688 C 324.195312 173.90625 324.359375 176.140625 324.46875 178.375 C 324.578125 180.609375 324.632812 182.847656 324.632812 185.085938 Z M 324.632812 185.085938 "/><path style=" stroke:none;fill-rule:nonzero;fill:#ffffff;fill-opacity:1;" d="M 170.128906 140.402344 L 164.800781 117.929688 C 164.648438 117.289062 164.464844 116.660156 164.246094 116.039062 C 164.027344 115.417969 163.777344 114.8125 163.496094 114.21875 C 163.214844 113.625 162.902344 113.046875 162.558594 112.484375 C 162.214844 111.921875 161.84375 111.382812 161.441406 110.859375 C 161.042969 110.335938 160.617188 109.839844 160.164062 109.359375 C 159.710938 108.882812 159.234375 108.429688 158.734375 108.003906 C 158.234375 107.578125 157.710938 107.179688 157.167969 106.804688 C 156.625 106.433594 156.066406 106.089844 155.484375 105.777344 C 154.90625 105.464844 154.3125 105.183594 153.703125 104.933594 C 153.097656 104.679688 152.476562 104.464844 151.84375 104.277344 C 151.214844 104.09375 150.574219 103.941406 149.925781 103.824219 C 149.277344 103.703125 148.625 103.621094 147.96875 103.570312 C 147.3125 103.523438 146.65625 103.507812 146 103.527344 C 145.339844 103.546875 144.6875 103.601562 144.035156 103.6875 C 143.382812 103.777344 142.734375 103.898438 142.097656 104.058594 C 141.457031 104.214844 140.828125 104.402344 140.207031 104.625 L 127.917969 109.046875 C 126.925781 109.402344 125.96875 109.84375 125.050781 110.363281 C 124.128906 110.882812 123.261719 111.472656 122.441406 112.140625 C 121.621094 112.804688 120.863281 113.535156 120.167969 114.332031 C 119.472656 115.125 118.847656 115.972656 118.296875 116.871094 C 117.742188 117.769531 117.269531 118.710938 116.875 119.6875 C 116.480469 120.667969 116.171875 121.671875 115.949219 122.703125 C 115.726562 123.734375 115.589844 124.777344 115.542969 125.832031 C 115.496094 126.886719 115.535156 127.9375 115.667969 128.984375 C 119.949219 163.746094 139.660156 247.835938 230.320312 266.3125 C 231.214844 266.492188 232.117188 266.609375 233.03125 266.660156 C 233.941406 266.710938 234.851562 266.695312 235.761719 266.613281 C 236.671875 266.53125 237.570312 266.382812 238.457031 266.171875 C 239.347656 265.957031 240.214844 265.679688 241.0625 265.339844 C 241.910156 265 242.726562 264.601562 243.515625 264.140625 C 244.304688 263.683594 245.058594 263.167969 245.773438 262.597656 C 246.484375 262.03125 247.15625 261.414062 247.777344 260.746094 C 248.402344 260.078125 248.972656 259.371094 249.492188 258.621094 L 256.546875 248.441406 C 256.894531 247.9375 257.21875 247.417969 257.519531 246.882812 C 257.816406 246.34375 258.089844 245.796875 258.332031 245.234375 C 258.578125 244.671875 258.792969 244.097656 258.980469 243.511719 C 259.167969 242.929688 259.328125 242.335938 259.457031 241.738281 C 259.585938 241.136719 259.6875 240.535156 259.757812 239.925781 C 259.828125 239.316406 259.867188 238.703125 259.878906 238.089844 C 259.886719 237.476562 259.867188 236.863281 259.816406 236.253906 C 259.765625 235.640625 259.6875 235.035156 259.578125 234.429688 C 259.46875 233.828125 259.328125 233.230469 259.160156 232.640625 C 258.992188 232.050781 258.792969 231.472656 258.570312 230.902344 C 258.34375 230.332031 258.089844 229.773438 257.808594 229.226562 C 257.527344 228.679688 257.222656 228.152344 256.890625 227.636719 C 256.558594 227.121094 256.199219 226.621094 255.820312 226.140625 C 255.4375 225.660156 255.03125 225.199219 254.605469 224.757812 C 254.179688 224.320312 253.730469 223.898438 253.261719 223.503906 C 252.796875 223.105469 252.308594 222.734375 251.804688 222.382812 L 251.683594 222.300781 L 236.183594 211.757812 C 235.351562 211.191406 234.476562 210.695312 233.5625 210.269531 C 232.648438 209.84375 231.707031 209.492188 230.738281 209.21875 C 229.765625 208.945312 228.78125 208.75 227.777344 208.632812 C 226.777344 208.519531 225.773438 208.484375 224.765625 208.53125 C 223.757812 208.578125 222.761719 208.707031 221.773438 208.914062 C 220.785156 209.121094 219.824219 209.40625 218.882812 209.769531 C 217.941406 210.128906 217.035156 210.566406 216.164062 211.074219 C 215.292969 211.585938 214.472656 212.160156 213.695312 212.800781 C 212.921875 213.441406 212.101562 214.011719 211.238281 214.519531 C 210.375 215.027344 209.476562 215.460938 208.542969 215.824219 C 207.609375 216.1875 206.648438 216.476562 205.671875 216.683594 C 204.691406 216.894531 203.699219 217.023438 202.699219 217.074219 C 201.695312 217.125 200.699219 217.09375 199.703125 216.984375 C 198.707031 216.875 197.722656 216.6875 196.757812 216.417969 C 195.792969 216.152344 194.855469 215.808594 193.941406 215.390625 C 193.03125 214.972656 192.160156 214.484375 191.328125 213.925781 C 181.898438 207.582031 169.136719 197.058594 160.847656 182.46875 C 160.382812 181.65625 159.980469 180.8125 159.644531 179.9375 C 159.304688 179.066406 159.035156 178.171875 158.828125 177.257812 C 158.625 176.34375 158.488281 175.421875 158.421875 174.484375 C 158.355469 173.550781 158.359375 172.617188 158.433594 171.683594 C 158.507812 170.75 158.652344 169.828125 158.863281 168.917969 C 159.074219 168.003906 159.351562 167.113281 159.699219 166.242188 C 160.042969 165.371094 160.449219 164.53125 160.921875 163.722656 C 161.394531 162.914062 161.921875 162.140625 162.507812 161.410156 L 166.496094 156.460938 C 167.390625 155.347656 168.148438 154.148438 168.769531 152.867188 C 169.390625 151.582031 169.859375 150.242188 170.171875 148.851562 C 170.488281 147.460938 170.640625 146.050781 170.636719 144.625 C 170.628906 143.199219 170.460938 141.792969 170.128906 140.402344 Z M 170.128906 140.402344 "/></g></svg>